<svg width="450" height="450" viewBox="0 0 450 450" fill="none" xmlns="http://www.w3.org/2000/svg">
<g clip-path="url(#clip0_1_2)">
<g clip-path="url(#clip1_1_2)">
<path d="M38.4459 56.0496C41.4411 62.777 49.3223 65.8023 56.0496 62.8071C62.777 59.8119 65.8023 51.9307 62.8071 45.2033C59.8119 38.476 51.9307 35.4506 45.2033 38.4459" stroke="#878787" stroke-width="2" stroke-linecap="round" stroke-linejoin="round"/>
<path d="M51.9155 55.1608C51.9155 55.1608 52.658 51.9112 56.3122 50.2843C59.9664 48.6573 62.8781 50.28 62.8781 50.28M35.3254 45.7628C33.8319 42.4083 38.7041 40.239 40.1976 43.5936C41.2644 45.9895 38.6509 46.6758 39.9308 49.5504M41.5632 53.2168L41.5694 53.198" stroke="#878787" stroke-width="2" stroke-linecap="round" stroke-linejoin="round"/>
<path d="M55.6989 43.9895C55.5373 44.0615 55.3539 44.0663 55.1888 44.0029C55.0237 43.9395 54.8906 43.8132 54.8187 43.6517C54.7468 43.4901 54.7419 43.3067 54.8053 43.1416C54.8687 42.9765 54.995 42.8434 55.1565 42.7715C55.3181 42.6996 55.5015 42.6948 55.6666 42.7581C55.8317 42.8215 55.9648 42.9478 56.0367 43.1094C56.1086 43.2709 56.1135 43.4544 56.0501 43.6194C55.9867 43.7845 55.8604 43.9176 55.6989 43.9895ZM47.1724 47.7858C47.0109 47.8577 46.8274 47.8625 46.6624 47.7991C46.4973 47.7357 46.3642 47.6094 46.2922 47.4479C46.2203 47.2864 46.2155 47.1029 46.2789 46.9378C46.3423 46.7727 46.4686 46.6396 46.6301 46.5677C46.7916 46.4958 46.9751 46.491 47.1402 46.5543C47.3053 46.6177 47.4384 46.744 47.5103 46.9056C47.5822 47.0671 47.587 47.2506 47.5237 47.4156C47.4603 47.5807 47.334 47.7138 47.1724 47.7858Z" fill="#878787" stroke="#878787" stroke-width="2" stroke-linecap="round" stroke-linejoin="round"/>
</g>
<g clip-path="url(#clip2_1_2)">
<path fill-rule="evenodd" clip-rule="evenodd" d="M162.537 40.882C162.681 41.205 162.947 41.4577 163.277 41.5844C163.607 41.7112 163.974 41.7016 164.297 41.5577L169.883 39.0707L166.307 48.3883C166.212 48.6345 166.193 48.9032 166.251 49.1603C166.309 49.4175 166.442 49.6516 166.634 49.8331C166.825 50.0146 167.066 50.1353 167.326 50.18C167.585 50.2247 167.853 50.1913 168.094 50.0842L176.62 46.2879C176.943 46.1441 177.196 45.8778 177.322 45.5477C177.449 45.2176 177.44 44.8506 177.296 44.5276C177.152 44.2045 176.886 43.9518 176.555 43.8251C176.225 43.6984 175.858 43.708 175.535 43.8518L169.949 46.3389L173.526 37.0212C173.62 36.775 173.64 36.5064 173.582 36.2492C173.523 35.9921 173.39 35.7579 173.199 35.5764C173.008 35.3949 172.767 35.2742 172.507 35.2295C172.247 35.1848 171.98 35.2182 171.739 35.3254L163.213 39.1216C162.89 39.2654 162.637 39.5317 162.51 39.8618C162.384 40.192 162.393 40.5589 162.537 40.882ZM156.046 52.5289C155.723 52.6727 155.356 52.6823 155.026 52.5556C154.696 52.4289 154.43 52.1762 154.286 51.8531C154.142 51.5301 154.133 51.1631 154.259 50.833C154.386 50.5029 154.639 50.2366 154.962 50.0927L161.052 47.3812C161.293 47.274 161.56 47.2406 161.82 47.2853C162.08 47.33 162.321 47.4507 162.512 47.6322C162.703 47.8137 162.836 48.0478 162.895 48.305C162.953 48.5622 162.933 48.8308 162.839 49.077L160.614 54.8739L163.764 53.4715C164.087 53.3276 164.454 53.318 164.784 53.4448C165.114 53.5715 165.38 53.8242 165.524 54.1472C165.668 54.4703 165.677 54.8372 165.551 55.1674C165.424 55.4975 165.171 55.7638 164.848 55.9076L158.758 58.6192C158.517 58.7264 158.25 58.7597 157.99 58.715C157.73 58.6704 157.489 58.5496 157.298 58.3681C157.107 58.1866 156.974 57.9525 156.915 57.6953C156.857 57.4382 156.877 57.1695 156.971 56.9234L159.196 51.1264L156.046 52.5289ZM169.587 56.7168C169.264 56.8606 168.897 56.8702 168.567 56.7435C168.237 56.6168 167.971 56.3641 167.827 56.041C167.683 55.718 167.673 55.351 167.8 55.0209C167.927 54.6908 168.179 54.4245 168.502 54.2806L173.375 52.1114C173.616 52.0042 173.883 51.9708 174.143 52.0155C174.403 52.0602 174.643 52.1809 174.835 52.3624C175.026 52.5439 175.159 52.7781 175.217 53.0352C175.275 53.2924 175.256 53.561 175.162 53.8072L173.612 57.8437L175.544 56.9836C175.867 56.8398 176.234 56.8302 176.564 56.9569C176.894 57.0836 177.16 57.3363 177.304 57.6594C177.448 57.9824 177.458 58.3494 177.331 58.6795C177.204 59.0096 176.952 59.2759 176.629 59.4198L171.756 61.589C171.515 61.6962 171.248 61.7296 170.988 61.6849C170.728 61.6402 170.488 61.5195 170.296 61.338C170.105 61.1565 169.972 60.9223 169.914 60.6652C169.856 60.408 169.875 60.1394 169.969 59.8932L171.519 55.8567L169.587 56.7168Z" fill="#878787"/>
</g>
<g clip-path="url(#clip3_1_2)">
<path d="M277.701 38.4459C278.158 38.2425 278.62 38.0662 279.086 37.9182C279.253 37.865 279.429 37.8452 279.603 37.8599C279.778 37.8746 279.948 37.9235 280.103 38.0038C280.259 38.0842 280.397 38.1944 280.51 38.3282C280.623 38.462 280.709 38.6167 280.762 38.7835C280.815 38.9504 280.835 39.126 280.82 39.3005C280.806 39.475 280.757 39.6449 280.676 39.8005C280.596 39.9561 280.486 40.0943 280.352 40.2073C280.218 40.3203 280.063 40.4058 279.897 40.459C277.789 41.1282 275.942 42.4356 274.61 44.2005C273.279 45.9654 272.528 48.1005 272.463 50.3105C272.398 52.5206 273.021 54.6963 274.246 56.5367C275.471 58.3771 277.238 59.7913 279.302 60.5836C281.366 61.376 283.626 61.5073 285.768 60.9595C287.91 60.4117 289.829 59.2117 291.259 57.5257C292.689 55.8397 293.56 53.7508 293.752 51.5482C293.943 49.3455 293.445 47.1378 292.327 45.2304C292.238 45.0793 292.181 44.9122 292.157 44.7387C292.133 44.5652 292.143 44.3887 292.188 44.2194C292.278 43.8773 292.499 43.5848 292.805 43.4063C293.11 43.2278 293.474 43.1779 293.816 43.2675C293.985 43.3119 294.144 43.3892 294.284 43.4951C294.423 43.6009 294.54 43.7332 294.629 43.8843C294.876 44.3072 295.102 44.7465 295.305 45.2033C298.3 51.9307 295.275 59.8119 288.548 62.8071C281.82 65.8023 273.939 62.777 270.944 56.0496C267.949 49.3223 270.974 41.4411 277.701 38.4459ZM280.85 45.6218C281.069 45.8987 281.17 46.2515 281.129 46.6026C281.089 46.9536 280.911 47.2743 280.634 47.4941C279.875 48.1014 279.363 48.9641 279.194 49.9212C279.024 50.8782 279.209 51.8641 279.713 52.6951C280.217 53.526 281.007 54.1451 281.934 54.4368C282.861 54.7286 283.862 54.6731 284.751 54.2806C285.561 53.9196 286.228 53.2999 286.648 52.5187C287.068 51.7376 287.216 50.8392 287.07 49.9646C287.011 49.6157 287.094 49.258 287.299 48.9699C287.504 48.6818 287.815 48.4871 288.164 48.4286C288.513 48.3701 288.871 48.4525 289.159 48.6578C289.447 48.863 289.642 49.1743 289.7 49.5231C289.964 51.1219 289.637 52.762 288.78 54.1373C287.923 55.5125 286.595 56.5287 285.043 56.996C283.492 57.4633 281.823 57.3497 280.349 56.6766C278.875 56.0034 277.697 54.8167 277.034 53.338C276.433 51.9877 276.298 50.476 276.649 49.0403C277.001 47.6047 277.819 46.3265 278.976 45.4065C279.113 45.2976 279.27 45.2168 279.439 45.1687C279.607 45.1205 279.783 45.1061 279.957 45.126C280.131 45.146 280.3 45.2001 280.453 45.2852C280.606 45.3702 280.741 45.4846 280.85 45.6218ZM285.692 35.0733C285.956 35.0665 286.215 35.1379 286.438 35.2784C286.661 35.419 286.837 35.6224 286.945 35.863L287.937 38.092L290.165 37.1001C290.406 36.993 290.673 36.9596 290.933 37.0043C291.193 37.049 291.434 37.1697 291.625 37.3512C291.816 37.5327 291.949 37.7668 292.007 38.024C292.066 38.2811 292.046 38.5498 291.952 38.796L289.559 45.0175C289.433 45.3477 289.18 45.614 288.857 45.7578L285.918 47.0665L284.683 50.2856C284.557 50.616 284.304 50.8824 283.98 51.0263C283.657 51.1702 283.29 51.1798 282.96 51.053C282.629 50.9262 282.363 50.6734 282.219 50.3502C282.075 50.0269 282.066 49.6598 282.192 49.3295L283.429 46.1122L282.12 43.1718C281.977 42.8487 281.967 42.4818 282.094 42.1517L284.482 35.9276C284.576 35.6813 284.742 35.4685 284.957 35.3163C285.173 35.164 285.428 35.079 285.692 35.0721L285.692 35.0733ZM285.818 39.888L284.781 42.5914L285.548 44.3138L287.27 43.5469L288.309 40.8442L287.803 41.0693C287.48 41.2131 287.113 41.2227 286.783 41.096C286.453 40.9692 286.187 40.7166 286.043 40.3935L285.818 39.888Z" fill="#878787"/>
</g>
<g clip-path="url(#clip4_1_2)">
<path d="M393.95 38.4459C396.212 37.439 398.78 37.3718 401.091 38.2589C403.402 39.146 405.266 40.9147 406.273 43.1761C407.564 46.0751 407.248 49.2662 405.732 51.7947L406.957 54.5475C407.101 54.8706 407.111 55.2375 406.984 55.5676C406.857 55.8978 406.605 56.164 406.282 56.3079L398.973 59.5618C398.65 59.7056 398.283 59.7152 397.953 59.5885C397.623 59.4618 397.357 59.2091 397.213 58.886L395.987 56.1332C393.094 55.5679 390.511 53.6675 389.22 50.7685C388.213 48.5071 388.146 45.9385 389.033 43.6275C389.92 41.3166 391.689 39.4527 393.95 38.4459ZM400.6 63.216L400.058 61.9979L407.366 58.744L407.909 59.9621C408.052 60.2851 408.062 60.6521 407.935 60.9822C407.809 61.3123 407.556 61.5786 407.233 61.7224L402.361 63.8917C402.038 64.0355 401.671 64.0451 401.34 63.9184C401.01 63.7917 400.744 63.539 400.6 63.216ZM395.035 40.882C393.42 41.6011 392.156 42.9325 391.523 44.5832C390.889 46.2338 390.937 48.0686 391.656 49.6839C392.768 52.1809 395.221 53.6576 397.794 53.6356L399.107 56.5833L403.979 54.4141L402.667 51.4664C404.405 49.5686 404.949 46.7577 403.837 44.2607C403.118 42.6455 401.786 41.382 400.136 40.7484C398.485 40.1148 396.65 40.1628 395.035 40.882Z" fill="#878787"/>
</g>
<g clip-path="url(#clip5_1_2)">
<path d="M43.4601 180.283C43.7478 180.929 44.2803 181.434 44.9406 181.688C45.6009 181.941 46.3348 181.922 46.9809 181.634C49.417 180.55 47.2477 175.677 45.7542 169.045C44.2607 162.412 42.0914 157.54 44.5276 156.455C45.1737 156.168 45.9076 156.148 46.5678 156.402C47.2281 156.655 47.7607 157.161 48.0483 157.807M42.1 170.672L49.4084 167.418M54.2806 165.249L64.8429 169.303M57.5345 172.557L61.589 161.995" stroke="#878787" stroke-width="2.66667" stroke-linecap="round" stroke-linejoin="round"/>
</g>
<path d="M166.337 172.223C166.266 172.062 166.261 171.878 166.324 171.713C166.387 171.548 166.514 171.415 166.675 171.343L169.111 170.259C169.596 170.043 170.146 170.028 170.642 170.218C171.137 170.409 171.536 170.788 171.752 171.272C171.968 171.757 171.982 172.307 171.792 172.802C171.602 173.298 171.223 173.697 170.738 173.913M170.738 173.913L169.317 174.546M170.738 173.913C171.223 173.697 171.773 173.683 172.269 173.873C172.764 174.063 173.163 174.442 173.379 174.926C173.595 175.411 173.609 175.961 173.419 176.457C173.229 176.952 172.85 177.351 172.365 177.567L169.929 178.652C169.768 178.723 169.584 178.728 169.419 178.665C169.254 178.601 169.121 178.475 169.049 178.314M158.349 170.672L175.402 163.079M160.643 159.434L161.995 155.913L165.249 163.221" stroke="#878787" stroke-width="2.66667" stroke-linecap="round" stroke-linejoin="round"/>
<g clip-path="url(#clip6_1_2)">
<path d="M272.162 171.756L294.087 161.995M278.244 155.913L288.005 177.838M284.538 155.3L289.82 157.327M288.193 153.673L286.165 158.954M271.478 160.385L273.647 165.257M270.126 163.906L274.998 161.736M292.602 168.494L292.614 168.488M294.771 173.366L294.784 173.361M276.634 178.522L281.506 176.353" stroke="#878787" stroke-width="2.66667" stroke-linecap="round" stroke-linejoin="round"/>
</g>
<g clip-path="url(#clip7_1_2)">
<path d="M404.779 152.792L385.291 161.47C384.644 161.757 384.139 162.29 383.886 162.95C383.632 163.61 383.651 164.344 383.939 164.99L390.447 179.607C390.734 180.253 391.267 180.758 391.927 181.012C392.588 181.265 393.321 181.246 393.968 180.958L413.457 172.281C414.796 171.685 415.405 170.101 414.808 168.761L408.3 154.144C408.013 153.498 407.48 152.993 406.82 152.739C406.16 152.486 405.426 152.505 404.779 152.792ZM412.372 169.845L392.883 178.522L387.46 166.342L406.949 157.665L412.372 169.845ZM409.393 169.712L402.085 172.966L401 170.53L408.309 167.276L409.393 169.712ZM396.604 175.406L394.122 174.453L395.86 169.899L391.3 168.149L392.265 165.662L399.307 168.365L396.604 175.406Z" fill="#878787"/>
</g>
<g clip-path="url(#clip8_1_2)">
<path d="M63.6248 286.094C64.9647 285.498 65.5607 283.919 64.9642 282.579L59.5532 270.393C58.9566 269.053 57.3723 268.445 56.0324 269.041L36.5435 277.719C35.2036 278.315 34.5954 279.899 35.192 281.239L40.6151 293.42C41.2117 294.76 42.796 295.368 44.1359 294.771L39.2636 296.941L40.3483 299.377L69.5817 286.361L68.4971 283.925L63.6248 286.094ZM37.6281 280.155L57.1171 271.478L62.5402 283.658L43.0512 292.335L37.6281 280.155Z" fill="#878787"/>
</g>
<g clip-path="url(#clip9_1_2)">
<path d="M179.465 281.898L175.408 292.455L162.014 298.424C161.693 298.569 161.327 298.58 160.997 298.455C160.667 298.331 160.4 298.08 160.255 297.758L151.571 278.252C151.273 277.585 151.574 276.801 152.242 276.504L171.748 267.82C172.415 267.522 173.204 267.837 173.501 268.502L179.465 281.898ZM171.606 270.802L154.553 278.394L162.145 295.447L171.89 291.109L169.178 285.018C169.045 284.72 169.027 284.383 169.126 284.072C169.225 283.761 169.434 283.497 169.715 283.33L169.854 283.258L175.944 280.545L171.606 270.802ZM176.019 283.431L172.157 285.152L173.875 289.012L176.019 283.431Z" fill="#878787"/>
</g>
<g clip-path="url(#clip10_1_2)">
<path d="M277.568 273.922C278.761 273.391 280.084 273.222 281.373 273.436C282.661 273.65 283.859 274.238 284.816 275.127C285.773 276.016 286.448 277.166 286.757 278.435C287.066 279.704 286.996 281.036 286.554 282.266C286.113 283.495 285.32 284.568 284.274 285.35C283.228 286.133 281.975 286.591 280.671 286.668C279.367 286.744 278.07 286.436 276.939 285.782C275.809 285.127 274.896 284.155 274.313 282.986L274.189 282.724L274.078 282.457C273.448 280.859 273.459 279.079 274.109 277.489C274.76 275.899 275.999 274.621 277.568 273.922Z" fill="#878787"/>
<path d="M280.029 269.181C280.066 268.829 280.24 268.506 280.514 268.283C280.789 268.06 281.14 267.955 281.492 267.991C283.16 268.163 284.773 268.682 286.228 269.514C287.683 270.347 288.948 271.474 289.941 272.825C290.935 274.175 291.634 275.718 291.996 277.355C292.358 278.992 292.373 280.687 292.04 282.33C291.708 283.973 291.036 285.529 290.066 286.897C289.097 288.264 287.853 289.414 286.413 290.273C284.973 291.131 283.369 291.678 281.705 291.88C280.04 292.082 278.352 291.933 276.749 291.444C276.581 291.392 276.426 291.309 276.291 291.197C276.155 291.086 276.044 290.949 275.961 290.795C275.879 290.64 275.828 290.471 275.811 290.296C275.794 290.122 275.812 289.946 275.863 289.779C275.914 289.611 275.998 289.455 276.109 289.32C276.221 289.185 276.358 289.073 276.512 288.991C276.667 288.909 276.836 288.858 277.01 288.841C277.185 288.824 277.361 288.842 277.528 288.893C278.776 289.274 280.089 289.389 281.384 289.232C282.679 289.076 283.927 288.649 285.048 287.982C286.168 287.314 287.137 286.419 287.891 285.355C288.645 284.29 289.168 283.08 289.427 281.801C289.686 280.523 289.674 279.204 289.393 277.93C289.111 276.656 288.567 275.456 287.794 274.405C287.021 273.354 286.036 272.476 284.904 271.829C283.772 271.181 282.517 270.777 281.219 270.643C280.867 270.607 280.545 270.432 280.321 270.158C280.098 269.884 279.993 269.532 280.029 269.181Z" fill="#878787"/>
<path d="M284.076 288.539C284.374 288.406 284.711 288.388 285.022 288.487C285.333 288.586 285.597 288.795 285.764 289.076L285.836 289.215L288.005 294.087C288.143 294.398 288.157 294.749 288.045 295.07C287.932 295.39 287.701 295.656 287.399 295.812C287.098 295.968 286.748 296.003 286.421 295.91C286.094 295.817 285.815 295.602 285.641 295.31L285.569 295.172L283.4 290.299C283.256 289.976 283.247 289.609 283.373 289.279C283.5 288.949 283.753 288.683 284.076 288.539Z" fill="#878787"/>
<path d="M291.117 291.242C291.428 291.104 291.779 291.09 292.1 291.203C292.421 291.315 292.686 291.546 292.842 291.848C292.999 292.15 293.034 292.5 292.94 292.827C292.847 293.153 292.633 293.432 292.341 293.606L292.202 293.678L282.457 298.017C282.147 298.155 281.795 298.169 281.475 298.056C281.154 297.943 280.888 297.713 280.732 297.411C280.576 297.109 280.541 296.759 280.634 296.432C280.728 296.105 280.942 295.826 281.234 295.653L281.373 295.581L291.117 291.242Z" fill="#878787"/>
</g>
<path d="M392.254 280.573C389.665 274.759 398.801 270.692 401.389 276.506C403.238 280.658 398.716 281.676 400.934 286.659M403.175 291.663L403.181 291.644" stroke="#878787" stroke-width="2" stroke-linecap="round" stroke-linejoin="round"/>
<g clip-path="url(#clip11_1_2)">
<path d="M45.2033 387.193C49.9537 385.078 55.4109 387.173 57.5259 391.923C60.346 398.257 56.0496 411.554 56.0496 411.554C56.0496 411.554 43.2931 405.849 40.4731 399.516C38.3581 394.765 40.4529 389.308 45.2033 387.193ZM46.2879 389.629C42.8774 391.148 41.3907 395.02 42.9092 398.431C43.4515 399.649 44.5362 402.085 54.26 407.535C56.7168 396.662 55.6321 394.226 55.0898 393.008C53.5713 389.597 49.6985 388.111 46.2879 389.629ZM50.3553 398.765L54.0921 399.29L51.8428 396.205L53.4921 392.697L49.8513 394.027L47.0472 391.334L47.1173 395.098L43.7476 397.036L47.4578 398.157L48.1236 401.947L50.3553 398.765Z" fill="#878787"/>
</g>
<g clip-path="url(#clip12_1_2)">
<path d="M167.758 394.602L169.413 395.237L163.266 411.197L162.145 411.696L161.646 410.576L167.758 394.602ZM168.889 385.341C168.584 385.477 168.322 385.74 168.194 386.074L166.957 389.296L173.558 391.83L174.795 388.608C175.058 387.922 174.706 387.13 174.03 386.891L169.911 385.31C169.559 385.175 169.206 385.2 168.889 385.341ZM166.234 391.179L158.76 410.649L160.794 415.217L165.362 413.183L172.835 393.713L166.234 391.179Z" fill="#878787"/>
</g>
<g clip-path="url(#clip13_1_2)">
<path d="M290.773 406.915L286.254 406.402L283.611 410.103L282.75 405.612L278.38 404.288L282.376 402.086L282.311 397.546L285.641 400.632L289.952 399.136L288.012 403.269M287.446 382.854L267.957 391.531L269.042 393.968L276.935 395.766C275.262 397.567 274.263 399.89 274.106 402.343C273.948 404.796 274.643 407.228 276.072 409.228C277.502 411.228 279.578 412.672 281.95 413.318C284.321 413.963 286.843 413.77 289.089 412.77C291.334 411.77 293.166 410.025 294.273 407.831C295.381 405.636 295.696 403.127 295.166 400.727C294.637 398.326 293.294 396.183 291.366 394.658C289.438 393.134 287.042 392.322 284.585 392.36L288.53 385.291M292.06 399.774C292.677 401.158 292.888 402.688 292.669 404.187C292.45 405.686 291.81 407.092 290.823 408.242C289.836 409.392 288.543 410.237 287.095 410.681C285.646 411.124 284.101 411.147 282.64 410.747C281.179 410.347 279.861 409.54 278.841 408.42C277.82 407.301 277.138 405.914 276.875 404.422C276.611 402.93 276.777 401.394 277.352 399.993C277.928 398.591 278.889 397.382 280.125 396.505C280.987 395.888 281.965 395.453 283 395.226C284.803 394.821 286.691 395.052 288.342 395.882C289.994 396.711 291.307 398.086 292.06 399.774ZM281.18 392.942L279.646 393.625L273.146 392.14L284.523 387.075L281.18 392.942Z" fill="#878787"/>
</g>
<path d="M398.701 406.387L390.604 403.278L393.712 395.18L391.247 394.234L387.193 404.797L397.755 408.851L398.701 406.387ZM405.035 403.567L408.144 395.469L400.046 392.36L400.992 389.896L411.554 393.95L407.5 404.513L405.035 403.567Z" fill="#878787"/>
</g>
<defs>
<clipPath id="clip0_1_2">
<rect width="450" height="450" fill="white"/>
</clipPath>
<clipPath id="clip1_1_2">
<rect width="32" height="32" fill="white" transform="translate(29.502 42.5175) rotate(-24)"/>
</clipPath>
<clipPath id="clip2_1_2">
<rect width="32" height="32" fill="white" transform="translate(145.751 42.5175) rotate(-24)"/>
</clipPath>
<clipPath id="clip3_1_2">
<rect width="32" height="32" fill="white" transform="translate(262 42.5175) rotate(-24)"/>
</clipPath>
<clipPath id="clip4_1_2">
<rect width="32" height="32" fill="white" transform="translate(378.249 42.5175) rotate(-24)"/>
</clipPath>
<clipPath id="clip5_1_2">
<rect width="32" height="32" fill="white" transform="translate(29.502 158.767) rotate(-24)"/>
</clipPath>
<clipPath id="clip6_1_2">
<rect width="32" height="32" fill="white" transform="translate(262 158.767) rotate(-24)"/>
</clipPath>
<clipPath id="clip7_1_2">
<rect width="32" height="32" fill="white" transform="translate(378.249 158.767) rotate(-24)"/>
</clipPath>
<clipPath id="clip8_1_2">
<rect width="32" height="32" fill="white" transform="translate(29.502 275.016) rotate(-24)"/>
</clipPath>
<clipPath id="clip9_1_2">
<rect width="32" height="32" fill="white" transform="translate(145.751 275.016) rotate(-24)"/>
</clipPath>
<clipPath id="clip10_1_2">
<rect width="32" height="32" fill="white" transform="translate(262 275.016) rotate(-24)"/>
</clipPath>
<clipPath id="clip11_1_2">
<rect width="32" height="32" fill="white" transform="translate(29.502 391.265) rotate(-24)"/>
</clipPath>
<clipPath id="clip12_1_2">
<rect width="32" height="32" fill="white" transform="translate(145.751 391.265) rotate(-24)"/>
</clipPath>
<clipPath id="clip13_1_2">
<rect width="32" height="32" fill="white" transform="translate(262 391.265) rotate(-24)"/>
</clipPath>
</defs>
</svg>
